<svg width="64" height="63" viewBox="0 0 64 63" fill="none" xmlns="http://www.w3.org/2000/svg">
<g clip-path="url('#clip0_1_19')">
<path d="M32 63C49.6731 63 64 48.897 64 31.5C64 14.103 49.6731 0 32 0C14.3269 0 0 14.103 0 31.5C0 48.897 14.3269 63 32 63Z" fill="#F4D2DD"></path>
<path d="M32 47.8334C40.9972 47.8334 48.2909 40.5207 48.2909 31.5001C48.2909 22.4794 40.9972 15.1667 32 15.1667C23.0028 15.1667 15.7091 22.4794 15.7091 31.5001C15.7091 40.5207 23.0028 47.8334 32 47.8334Z" stroke="black" stroke-width="3"></path>
<path d="M32 47.8334C36.332 47.8334 39.8438 40.5207 39.8438 31.5001C39.8438 22.4794 36.332 15.1667 32 15.1667C27.668 15.1667 24.1562 22.4794 24.1562 31.5001C24.1562 40.5207 27.668 47.8334 32 47.8334Z" stroke="black" stroke-width="3"></path>
<path d="M15.7091 31.5H48.2909" stroke="black" stroke-width="3"></path>
<path d="M17.821 23.636H46.1793" stroke="black" stroke-width="3"></path>
<path d="M17.821 39.9692H46.1793" stroke="black" stroke-width="3"></path>
</g>
<defs>
<clipPath id="clip0_1_19">
<rect width="64" height="63" fill="white"></rect>
</clipPath>
</defs>
</svg>
